<?xml version="1.0" standalone="no"?>
<!DOCTYPE svg PUBLIC "-//W3C//DTD SVG 20010904//EN"
 "http://www.w3.org/TR/2001/REC-SVG-20010904/DTD/svg10.dtd">
<svg version="1.0" xmlns="http://www.w3.org/2000/svg"
 width="512.000000pt" height="512.000000pt" viewBox="0 0 512.000000 512.000000"
 preserveAspectRatio="xMidYMid meet">

<g transform="translate(0.000000,512.000000) scale(0.100000,-0.100000)"
fill="#000000" stroke="none">
<path d="M2522 5100 c-35 -21 -62 -72 -62 -114 0 -14 77 -178 170 -366 94
-187 170 -344 170 -349 0 -4 -39 -22 -87 -41 -525 -199 -940 -685 -1094 -1278
-18 -71 -27 -123 -22 -140 21 -89 114 -129 190 -82 40 24 55 54 78 150 26 109
87 266 150 388 227 436 615 727 1080 809 121 21 350 20 480 -2 693 -119 1189
-711 1275 -1520 8 -76 10 -331 8 -825 l-3 -715 -27 -75 c-55 -149 -174 -285
-311 -354 -146 -74 -74 -70 -1157 -76 -736 -4 -980 -8 -996 -17 -53 -30 -75
-125 -40 -177 38 -60 -17 -57 1074 -54 l997 3 70 23 c319 101 541 330 627 644
23 83 23 83 23 838 0 572 -3 779 -13 855 -80 600 -342 1081 -758 1394 -102 76
-285 178 -386 216 -27 10 -48 23 -48 29 0 6 77 166 170 355 112 225 170 354
170 375 0 43 -19 76 -59 103 l-34 23 -801 0 c-786 0 -802 0 -834 -20z m1388
-245 c0 -5 -260 -528 -264 -531 0 -1 -48 5 -106 13 -101 14 -367 12 -445 -3
l-30 -5 -132 265 -133 266 555 0 c305 0 555 -2 555 -5z"/>
<path d="M3263 3050 c-47 -28 -63 -67 -63 -154 0 -84 6 -77 -81 -91 -105 -16
-216 -106 -268 -215 -23 -48 -26 -68 -26 -160 0 -94 3 -111 27 -161 38 -76
109 -146 188 -183 64 -31 68 -31 260 -36 206 -5 222 -9 259 -56 29 -37 29
-112 -1 -149 -40 -52 -63 -55 -369 -55 -242 0 -285 -2 -309 -16 -56 -34 -77
-112 -45 -174 27 -52 58 -60 220 -60 l145 0 0 -82 c0 -65 4 -90 20 -115 35
-58 101 -78 164 -48 49 24 69 67 74 161 l4 82 47 4 c117 11 243 107 299 225
23 50 27 71 27 153 0 82 -4 103 -27 153 -35 75 -114 157 -185 193 -57 28 -62
29 -258 34 -169 4 -205 8 -228 23 -85 56 -83 175 4 219 30 16 67 18 319 18
265 0 287 1 317 20 82 49 82 166 0 215 -27 17 -55 21 -173 23 l-141 4 -5 82
c-4 55 -12 92 -23 110 -37 56 -114 72 -172 36z"/>
<path d="M810 2543 c-294 -29 -569 -127 -693 -246 -35 -34 -68 -78 -85 -114
l-27 -58 -3 -824 c-3 -908 -5 -878 59 -975 90 -135 311 -241 619 -298 165 -31
523 -31 690 0 307 56 505 151 612 293 66 88 63 41 63 964 l0 840 -28 57 c-90
183 -371 315 -759 357 -90 10 -366 13 -448 4z m475 -258 c150 -23 250 -51 351
-100 98 -47 154 -98 154 -140 0 -85 -245 -197 -517 -237 -128 -19 -415 -15
-538 7 -270 47 -475 147 -475 232 0 88 231 198 500 238 121 18 404 18 525 0z
m-752 -686 c171 -49 293 -62 547 -56 176 4 246 9 320 26 97 21 258 72 343 110
l47 20 0 -96 0 -96 -36 -34 c-74 -69 -240 -135 -429 -169 -153 -28 -472 -26
-621 4 -194 39 -334 94 -404 161 l-40 38 0 96 0 95 88 -35 c48 -20 131 -49
185 -64z m-131 -470 c375 -138 826 -143 1207 -13 58 20 123 45 144 55 l37 19
0 -93 c0 -110 -6 -122 -92 -177 -76 -50 -199 -93 -340 -122 -97 -20 -144 -23
-333 -23 -188 0 -236 3 -331 23 -195 39 -351 105 -408 173 -24 28 -26 38 -26
125 l0 95 30 -16 c16 -9 67 -29 112 -46z m-45 -495 c101 -40 272 -87 388 -106
104 -16 456 -16 560 0 114 19 288 66 375 102 121 51 110 56 110 -48 0 -88 -1
-93 -31 -127 -63 -72 -265 -149 -472 -179 -122 -19 -375 -21 -498 -5 -199 25
-417 103 -491 177 l-38 36 0 93 c0 51 2 93 4 93 3 0 45 -16 93 -36z"/>
</g>
</svg>
